<svg xmlns="http://www.w3.org/2000/svg" width="1080" height="1080" viewBox="0 0 1080 1080">
  <defs>
    <style>
      .cls-1 {
        fill: #f22424;
        fill-rule: evenodd;
      }
    </style>
  </defs>
  <path id="Color_Fill_1" data-name="Color Fill 1" class="cls-1" d="M237.937,572.625h74.7v-29.85h-39.15v-75h-35.55v104.85Zm122.1,2.25q14.1,0,24.675-4.95a38.283,38.283,0,0,0,16.275-13.65,36.72,36.72,0,0,0,0-39.3,38.3,38.3,0,0,0-16.275-13.65q-10.575-4.95-24.675-4.95t-24.675,4.95a38.279,38.279,0,0,0-16.275,13.65,36.72,36.72,0,0,0,0,39.3,38.265,38.265,0,0,0,16.275,13.65q10.575,4.95,24.675,4.95h0Zm0-26.1a11.366,11.366,0,1,1,8.85-3.3,11.951,11.951,0,0,1-8.85,3.3h0Zm78.3,26.1a41.819,41.819,0,0,0,13.575-2.175,27.792,27.792,0,0,0,9.825-5.325v5.25h31.8v-43.8q0-14.549-11.55-22.5t-33.15-7.95a98.355,98.355,0,0,0-17.85,1.5,52.344,52.344,0,0,0-13.05,3.9v21.45a52.576,52.576,0,0,1,23.85-5.4q8.1,0,13.05,2.25t4.95,6.15v1.2a62.087,62.087,0,0,0-19.95-3.75q-16.053,0-24.225,6.3t-8.175,18.45q0,12,8.4,18.225t22.5,6.225h0Zm10.8-18.6a6.987,6.987,0,0,1-5.025-1.65,5.554,5.554,0,0,1-1.725-4.2,5.622,5.622,0,0,1,1.8-4.35,7.053,7.053,0,0,1,4.95-1.65,21,21,0,0,1,10.65,2.85v4.8a12.561,12.561,0,0,1-4.575,3,15.838,15.838,0,0,1-6.075,1.2h0Zm89.548,18.6a35.793,35.793,0,0,0,12.525-2.25,30.04,30.04,0,0,0,10.125-6v6h32.55V461.775h-33.75v43.35a28.076,28.076,0,0,0-9.375-4.875,38.889,38.889,0,0,0-12.075-1.875,41.248,41.248,0,0,0-20.25,4.8,33.249,33.249,0,0,0-13.425,13.5,44.8,44.8,0,0,0,0,40.05,32.865,32.865,0,0,0,13.35,13.425q8.624,4.725,20.325,4.725h0Zm9.3-26.1q-6,0-9.375-3t-3.375-9q0-6,3.375-9.15t9.375-3.15a14.8,14.8,0,0,1,7.2,1.8,11.836,11.836,0,0,1,4.95,4.95v10.8a11.836,11.836,0,0,1-4.95,4.95,14.8,14.8,0,0,1-7.2,1.8h0Zm73.8-54.75a17.087,17.087,0,0,0,12.375-4.875,17.2,17.2,0,0,0-.075-24.375,17.85,17.85,0,0,0-24.675,0,17.384,17.384,0,0,0-.075,24.375,17.014,17.014,0,0,0,12.45,4.875h0Zm-16.8,78.6h33.75v-72h-33.75v72Zm44.7,0h33.75v-41.4q3.749-6.75,11.1-6.75,3.9,0,5.625,2.175t1.725,6.375v39.6h33.75v-44.55q0-13.95-7.275-21.825t-23.025-7.875a36.7,36.7,0,0,0-12.6,2.175,33.092,33.092,0,0,0-10.5,6.075v-6h-32.55v72Zm135.9,34.5q25.8,0,38.1-10.575t12.3-29.625v-66.3h-32.55v6a30.073,30.073,0,0,0-10.125-6,35.789,35.789,0,0,0-12.525-2.25q-11.7,0-20.325,4.725a32.883,32.883,0,0,0-13.35,13.425,44.8,44.8,0,0,0,0,40.05,33.225,33.225,0,0,0,13.425,13.5,41.253,41.253,0,0,0,20.25,4.8A38.889,38.889,0,0,0,792.857,573a27.994,27.994,0,0,0,9.375-4.875v4.05q0,13.5-16.65,13.5-15.6,0-27.6-5.1v21.45a59.74,59.74,0,0,0,12.975,3.75,81.641,81.641,0,0,0,14.625,1.35h0Zm4.5-58.35q-6,0-9.375-3.15t-3.375-9.15q0-6,3.375-9t9.375-3a14.8,14.8,0,0,1,7.2,1.8,11.825,11.825,0,0,1,4.95,4.95v10.8a11.825,11.825,0,0,1-4.95,4.95,14.8,14.8,0,0,1-7.2,1.8h0Z"/>
</svg>
